<?xml version="1.0" encoding="UTF-8"?>
<svg version="1.1" xmlns="http://www.w3.org/2000/svg" width="512" height="512">
<path d="M0 0 C24.27815155 -0.09027659 48.55616731 -0.16396825 72.83444405 -0.20724869 C84.10713838 -0.22787823 95.37972107 -0.25600642 106.65234375 -0.30175781 C116.47699872 -0.34161345 126.30157284 -0.36742996 136.12630641 -0.37635398 C141.32896678 -0.38157086 146.53139582 -0.39384075 151.73398209 -0.42292023 C156.63083556 -0.45006909 161.5273624 -0.45844601 166.42428398 -0.45243073 C168.22139575 -0.45353119 170.01851843 -0.46148822 171.81556511 -0.4768219 C174.27052072 -0.4967419 176.72424528 -0.49193239 179.17922974 -0.48101807 C179.88936002 -0.49266943 180.5994903 -0.5043208 181.33113968 -0.51632524 C186.32958024 -0.45631306 189.14038736 0.88627442 193 4 C195.80277953 7.61791498 196.37960586 10.26666902 196.40405273 14.79663086 C196.42307899 16.50882057 196.42307899 16.50882057 196.44248962 18.25559998 C196.43955399 19.47965042 196.43661835 20.70370087 196.43359375 21.96484375 C196.4388356 23.23090958 196.44407745 24.4969754 196.44947815 25.80140686 C196.45589792 28.47721516 196.45600412 31.15216948 196.44604492 33.82788086 C196.43455978 37.24547373 196.45476522 40.66203262 196.48396206 44.07948971 C196.50679128 47.35377912 196.49985448 50.62799343 196.49609375 53.90234375 C196.50732773 55.12436996 196.51856171 56.34639618 196.53013611 57.60545349 C196.44176446 68.38807484 196.44176446 68.38807484 192 73 C187.85276298 76.12253847 184.29155704 76.42207337 179.26152039 76.36076355 C178.48954042 76.36332682 177.71756045 76.3658901 176.92218715 76.36853105 C174.33943143 76.37346638 171.75726228 76.35698042 169.17456055 76.34057617 C167.32162998 76.33972984 165.46869841 76.34020515 163.61576843 76.34190369 C158.58721117 76.34276484 153.55886834 76.32511951 148.53036094 76.30418181 C143.27463094 76.28543514 138.01889609 76.28366616 132.76313782 76.28010559 C122.81137008 76.27077923 112.85970114 76.2461574 102.90797693 76.21605712 C91.57798163 76.18253155 80.24798163 76.16603173 68.91794908 76.15097082 C45.61189865 76.11960839 22.30598367 76.06458887 -1 76 C-0.505 38.38 -0.505 38.38 0 0 Z " fill="#000000" transform="translate(316,271)"/>
<path d="M0 0 C0.76789642 -0.00256327 1.53579283 -0.00512655 2.32695884 -0.0077675 C4.8958962 -0.01270259 7.46424376 0.00378272 10.03312683 0.02018738 C11.8762053 0.02103371 13.71928479 0.02055839 15.56236267 0.01885986 C20.56406177 0.01799873 25.56554526 0.03564373 30.56719422 0.05658174 C35.79489694 0.07532875 41.02260454 0.07709742 46.25033569 0.08065796 C56.14897974 0.08998422 66.04752444 0.11460591 75.94612473 0.14470643 C87.21566161 0.17823231 98.48520322 0.1947319 109.75477755 0.20979273 C132.93641422 0.24115494 156.11791471 0.29617433 179.29948425 0.36076355 C179.29948425 25.44076355 179.29948425 50.52076355 179.29948425 76.36076355 C155.0213327 76.45104014 130.74331694 76.5247318 106.46504021 76.56801224 C95.19234587 76.58864178 83.91976318 76.61676997 72.6471405 76.66252136 C62.82248553 76.702377 52.99791141 76.72819351 43.17317784 76.73711753 C37.97051747 76.74233441 32.76808843 76.7546043 27.56550217 76.78368378 C22.66864869 76.81083264 17.77212186 76.81920956 12.87520027 76.81319427 C11.07808851 76.81429474 9.28096583 76.82225177 7.48391914 76.83758545 C5.02896353 76.85750545 2.57523898 76.85269594 0.12025452 76.84178162 C-0.58987577 76.85343298 -1.30000605 76.86508435 -2.03165543 76.87708879 C-7.03009599 76.81707661 -9.84090311 75.47448913 -13.70051575 72.36076355 C-16.50329527 68.74284857 -17.08012161 66.09409453 -17.10456848 61.56413269 C-17.11725266 60.42267288 -17.12993683 59.28121307 -17.14300537 58.10516357 C-17.14006973 56.88111313 -17.13713409 55.65706268 -17.1341095 54.3959198 C-17.13935135 53.12985397 -17.1445932 51.86378815 -17.1499939 50.55935669 C-17.15641367 47.88354839 -17.15651987 45.20859407 -17.14656067 42.53288269 C-17.13507552 39.11528982 -17.15528096 35.69873093 -17.18447781 32.28127384 C-17.20730703 29.00698443 -17.20037023 25.73277012 -17.1966095 22.4584198 C-17.20784348 21.23639359 -17.21907745 20.01436737 -17.23065186 18.75531006 C-17.14228021 7.97268871 -17.14228021 7.97268871 -12.70051575 3.36076355 C-8.56213675 0.24831514 -5.01859104 -0.06150411 0 0 Z " fill="#000000" transform="translate(16.700515747070313,376.6392364501953)"/>
<path d="M0 0 C0.76789642 -0.00256327 1.53579283 -0.00512655 2.32695884 -0.0077675 C4.8958962 -0.01270259 7.46424376 0.00378272 10.03312683 0.02018738 C11.8762053 0.02103371 13.71928479 0.02055839 15.56236267 0.01885986 C20.56406177 0.01799873 25.56554526 0.03564373 30.56719422 0.05658174 C35.79489694 0.07532875 41.02260454 0.07709742 46.25033569 0.08065796 C56.14897974 0.08998422 66.04752444 0.11460591 75.94612473 0.14470643 C87.21566161 0.17823231 98.48520322 0.1947319 109.75477755 0.20979273 C132.93641422 0.24115494 156.11791471 0.29617433 179.29948425 0.36076355 C179.29948425 25.44076355 179.29948425 50.52076355 179.29948425 76.36076355 C155.0213327 76.45104014 130.74331694 76.5247318 106.46504021 76.56801224 C95.19234587 76.58864178 83.91976318 76.61676997 72.6471405 76.66252136 C62.82248553 76.702377 52.99791141 76.72819351 43.17317784 76.73711753 C37.97051747 76.74233441 32.76808843 76.7546043 27.56550217 76.78368378 C22.66864869 76.81083264 17.77212186 76.81920956 12.87520027 76.81319427 C11.07808851 76.81429474 9.28096583 76.82225177 7.48391914 76.83758545 C5.02896353 76.85750545 2.57523898 76.85269594 0.12025452 76.84178162 C-0.58987577 76.85343298 -1.30000605 76.86508435 -2.03165543 76.87708879 C-7.03009599 76.81707661 -9.84090311 75.47448913 -13.70051575 72.36076355 C-16.50329527 68.74284857 -17.08012161 66.09409453 -17.10456848 61.56413269 C-17.11725266 60.42267288 -17.12993683 59.28121307 -17.14300537 58.10516357 C-17.14006973 56.88111313 -17.13713409 55.65706268 -17.1341095 54.3959198 C-17.13935135 53.12985397 -17.1445932 51.86378815 -17.1499939 50.55935669 C-17.15641367 47.88354839 -17.15651987 45.20859407 -17.14656067 42.53288269 C-17.13507552 39.11528982 -17.15528096 35.69873093 -17.18447781 32.28127384 C-17.20730703 29.00698443 -17.20037023 25.73277012 -17.1966095 22.4584198 C-17.20784348 21.23639359 -17.21907745 20.01436737 -17.23065186 18.75531006 C-17.14228021 7.97268871 -17.14228021 7.97268871 -12.70051575 3.36076355 C-8.56213675 0.24831514 -5.01859104 -0.06150411 0 0 Z " fill="#000000" transform="translate(16.700515747070313,164.6392364501953)"/>
<path d="M0 0 C24.27815155 -0.09027659 48.55616731 -0.16396825 72.83444405 -0.20724869 C84.10713838 -0.22787823 95.37972107 -0.25600642 106.65234375 -0.30175781 C116.47699872 -0.34161345 126.30157284 -0.36742996 136.12630641 -0.37635398 C141.32896678 -0.38157086 146.53139582 -0.39384075 151.73398209 -0.42292023 C156.63083556 -0.45006909 161.5273624 -0.45844601 166.42428398 -0.45243073 C168.22139575 -0.45353119 170.01851843 -0.46148822 171.81556511 -0.4768219 C174.27052072 -0.4967419 176.72424528 -0.49193239 179.17922974 -0.48101807 C179.88936002 -0.49266943 180.5994903 -0.5043208 181.33113968 -0.51632524 C186.32958024 -0.45631306 189.14038736 0.88627442 193 4 C195.80277953 7.61791498 196.37960586 10.26666902 196.40405273 14.79663086 C196.42307899 16.50882057 196.42307899 16.50882057 196.44248962 18.25559998 C196.43955399 19.47965042 196.43661835 20.70370087 196.43359375 21.96484375 C196.4388356 23.23090958 196.44407745 24.4969754 196.44947815 25.80140686 C196.45589792 28.47721516 196.45600412 31.15216948 196.44604492 33.82788086 C196.43455978 37.24547373 196.45476522 40.66203262 196.48396206 44.07948971 C196.50679128 47.35377912 196.49985448 50.62799343 196.49609375 53.90234375 C196.50732773 55.12436996 196.51856171 56.34639618 196.53013611 57.60545349 C196.44176446 68.38807484 196.44176446 68.38807484 192 73 C187.861621 76.11244841 184.3180753 76.42226766 179.29948425 76.36076355 C178.53158784 76.36332682 177.76369142 76.3658901 176.97252542 76.36853105 C174.40358805 76.37346614 171.8352405 76.35698083 169.26635742 76.34057617 C167.42327895 76.33972984 165.58019947 76.34020516 163.73712158 76.34190369 C158.73542249 76.34276482 153.733939 76.32511982 148.73229003 76.30418181 C143.50458731 76.2854348 138.27687971 76.28366613 133.04914856 76.28010559 C123.15050452 76.27077933 113.25195981 76.24615764 103.35335952 76.21605712 C92.08382264 76.18253124 80.81428103 76.16603165 69.5447067 76.15097082 C46.36307003 76.11960861 23.18156955 76.06458922 0 76 C0 50.92 0 25.84 0 0 Z " fill="#000000" transform="translate(316,59)"/>
<path d="M0 0 C0.76381286 -0.00256327 1.52762573 -0.00512655 2.31458443 -0.0077675 C4.86970345 -0.01270235 7.42422939 0.0037823 9.97929382 0.02018738 C11.8125202 0.02103372 13.6457476 0.02055838 15.47897339 0.01885986 C20.45381432 0.01799875 25.42843847 0.03564341 30.403229 0.05658174 C35.60290444 0.07532909 40.80258479 0.07709745 46.00228882 0.08065796 C55.84780917 0.08998412 65.69322964 0.11460567 75.538706 0.14470643 C86.74778447 0.17823263 97.95686768 0.19473198 109.1659838 0.20979273 C132.22320671 0.24115471 155.2802927 0.29617397 178.33744812 0.36076355 C178.66744812 25.44076355 178.99744812 50.52076355 179.33744812 76.36076355 C155.05929657 76.45104014 130.78128081 76.5247318 106.50300407 76.56801224 C95.23030974 76.58864178 83.95772705 76.61676997 72.68510437 76.66252136 C62.8604494 76.702377 53.03587528 76.72819351 43.21114171 76.73711753 C38.00848134 76.74233441 32.8060523 76.7546043 27.60346603 76.78368378 C22.70661256 76.81083264 17.81008572 76.81920956 12.91316414 76.81319427 C11.11605237 76.81429474 9.31892969 76.82225177 7.52188301 76.83758545 C5.0669274 76.85750545 2.61320284 76.85269594 0.15821838 76.84178162 C-0.5519119 76.85343298 -1.26204218 76.86508435 -1.99369156 76.87708879 C-6.99213212 76.81707661 -9.80293924 75.47448913 -13.66255188 72.36076355 C-16.46533141 68.74284857 -17.04215774 66.09409453 -17.06660461 61.56413269 C-17.07928879 60.42267288 -17.09197296 59.28121307 -17.1050415 58.10516357 C-17.10210587 56.88111313 -17.09917023 55.65706268 -17.09614563 54.3959198 C-17.10138748 53.12985397 -17.10662933 51.86378815 -17.11203003 50.55935669 C-17.1184498 47.88354839 -17.118556 45.20859407 -17.1085968 42.53288269 C-17.09711166 39.11528982 -17.1173171 35.69873093 -17.14651394 32.28127384 C-17.16934316 29.00698443 -17.16240636 25.73277012 -17.15864563 22.4584198 C-17.16987961 21.23639359 -17.18111359 20.01436737 -17.19268799 18.75531006 C-17.10431634 7.97268871 -17.10431634 7.97268871 -12.66255188 3.36076355 C-8.53307396 0.25841542 -5.00710431 -0.06170002 0 0 Z " fill="#000000" transform="translate(107.66255187988281,270.6392364501953)"/>
<path d="M0 0 C24.14776776 -0.09027722 48.295399 -0.16396862 72.44329262 -0.20724869 C83.65545313 -0.22787807 94.86750138 -0.25600596 106.07958984 -0.30175781 C115.85150711 -0.34161394 125.62334308 -0.36743008 135.39533937 -0.37635398 C140.57005461 -0.38157077 145.74453727 -0.39384013 150.91917801 -0.42292023 C155.78976712 -0.45006987 160.66002783 -0.45844586 165.53068542 -0.45243073 C167.31812194 -0.45353116 169.10556944 -0.46148772 170.89294052 -0.4768219 C173.33476106 -0.49674314 175.77534404 -0.49193197 178.2171936 -0.48101807 C178.92343294 -0.49266943 179.62967227 -0.5043208 180.3573128 -0.51632524 C185.34430088 -0.45613449 188.14876627 0.89583799 192 4 C194.80277953 7.61791498 195.37960586 10.26666902 195.40405273 14.79663086 C195.42307899 16.50882057 195.42307899 16.50882057 195.44248962 18.25559998 C195.43955399 19.47965042 195.43661835 20.70370087 195.43359375 21.96484375 C195.4388356 23.23090958 195.44407745 24.4969754 195.44947815 25.80140686 C195.45589792 28.47721516 195.45600412 31.15216948 195.44604492 33.82788086 C195.43455978 37.24547373 195.45476522 40.66203262 195.48396206 44.07948971 C195.50679128 47.35377912 195.49985448 50.62799343 195.49609375 53.90234375 C195.50732773 55.12436996 195.51856171 56.34639618 195.53013611 57.60545349 C195.44176446 68.38807484 195.44176446 68.38807484 191 73 C186.87052208 76.10234813 183.34455243 76.42246357 178.33744812 76.36076355 C177.57363526 76.36332682 176.80982239 76.3658901 176.02286369 76.36853105 C173.46774467 76.3734659 170.91321873 76.35698125 168.3581543 76.34057617 C166.52492792 76.33972983 164.69170052 76.34020517 162.85847473 76.34190369 C157.8836338 76.3427648 152.90900965 76.32512014 147.93421912 76.30418181 C142.73454368 76.28543445 137.53486333 76.2836661 132.3351593 76.28010559 C122.48963895 76.27077943 112.64421848 76.24615788 102.79874212 76.21605712 C91.58966365 76.18253092 80.38058044 76.16603157 69.17146432 76.15097082 C46.11424141 76.11960884 23.05715543 76.06458958 0 76 C0 50.92 0 25.84 0 0 Z " fill="#000000" transform="translate(226,377)"/>
<path d="M0 0 C24.14776776 -0.09027722 48.295399 -0.16396862 72.44329262 -0.20724869 C83.65545313 -0.22787807 94.86750138 -0.25600596 106.07958984 -0.30175781 C115.85150711 -0.34161394 125.62334308 -0.36743008 135.39533937 -0.37635398 C140.57005461 -0.38157077 145.74453727 -0.39384013 150.91917801 -0.42292023 C155.78976712 -0.45006987 160.66002783 -0.45844586 165.53068542 -0.45243073 C167.31812194 -0.45353116 169.10556944 -0.46148772 170.89294052 -0.4768219 C173.33476106 -0.49674314 175.77534404 -0.49193197 178.2171936 -0.48101807 C178.92343294 -0.49266943 179.62967227 -0.5043208 180.3573128 -0.51632524 C185.34430088 -0.45613449 188.14876627 0.89583799 192 4 C194.80277953 7.61791498 195.37960586 10.26666902 195.40405273 14.79663086 C195.42307899 16.50882057 195.42307899 16.50882057 195.44248962 18.25559998 C195.43955399 19.47965042 195.43661835 20.70370087 195.43359375 21.96484375 C195.4388356 23.23090958 195.44407745 24.4969754 195.44947815 25.80140686 C195.45589792 28.47721516 195.45600412 31.15216948 195.44604492 33.82788086 C195.43455978 37.24547373 195.45476522 40.66203262 195.48396206 44.07948971 C195.50679128 47.35377912 195.49985448 50.62799343 195.49609375 53.90234375 C195.50732773 55.12436996 195.51856171 56.34639618 195.53013611 57.60545349 C195.44176446 68.38807484 195.44176446 68.38807484 191 73 C186.87052208 76.10234813 183.34455243 76.42246357 178.33744812 76.36076355 C177.57363526 76.36332682 176.80982239 76.3658901 176.02286369 76.36853105 C173.46774467 76.3734659 170.91321873 76.35698125 168.3581543 76.34057617 C166.52492792 76.33972983 164.69170052 76.34020517 162.85847473 76.34190369 C157.8836338 76.3427648 152.90900965 76.32512014 147.93421912 76.30418181 C142.73454368 76.28543445 137.53486333 76.2836661 132.3351593 76.28010559 C122.48963895 76.27077943 112.64421848 76.24615788 102.79874212 76.21605712 C91.58966365 76.18253092 80.38058044 76.16603157 69.17146432 76.15097082 C46.11424141 76.11960884 23.05715543 76.06458958 0 76 C0 50.92 0 25.84 0 0 Z " fill="#000000" transform="translate(226,165)"/>
<path d="M0 0 C0.76381286 -0.00256327 1.52762573 -0.00512655 2.31458443 -0.0077675 C4.86970345 -0.01270235 7.42422939 0.0037823 9.97929382 0.02018738 C11.8125202 0.02103372 13.6457476 0.02055838 15.47897339 0.01885986 C20.45381432 0.01799875 25.42843847 0.03564341 30.403229 0.05658174 C35.60290444 0.07532909 40.80258479 0.07709745 46.00228882 0.08065796 C55.84780917 0.08998412 65.69322964 0.11460567 75.538706 0.14470643 C86.74778447 0.17823263 97.95686768 0.19473198 109.1659838 0.20979273 C132.22320671 0.24115471 155.2802927 0.29617397 178.33744812 0.36076355 C178.33744812 25.44076355 178.33744812 50.52076355 178.33744812 76.36076355 C154.18968036 76.45104077 130.04204912 76.52473217 105.8941555 76.56801224 C94.68199499 76.58864162 83.46994674 76.61676951 72.25785828 76.66252136 C62.48594101 76.70237749 52.71410504 76.72819363 42.94210875 76.73711753 C37.76739351 76.74233432 32.59291085 76.75460368 27.41827011 76.78368378 C22.547681 76.81083342 17.67742029 76.81920941 12.8067627 76.81319427 C11.01932618 76.81429471 9.23187868 76.82225127 7.4445076 76.83758545 C5.00268706 76.85750669 2.56210408 76.85269552 0.12025452 76.84178162 C-0.58598482 76.85343298 -1.29222415 76.86508435 -2.01986468 76.87708879 C-7.00685276 76.81689804 -9.81131815 75.46492556 -13.66255188 72.36076355 C-16.46533141 68.74284857 -17.04215774 66.09409453 -17.06660461 61.56413269 C-17.07928879 60.42267288 -17.09197296 59.28121307 -17.1050415 58.10516357 C-17.10210587 56.88111313 -17.09917023 55.65706268 -17.09614563 54.3959198 C-17.10138748 53.12985397 -17.10662933 51.86378815 -17.11203003 50.55935669 C-17.1184498 47.88354839 -17.118556 45.20859407 -17.1085968 42.53288269 C-17.09711166 39.11528982 -17.1173171 35.69873093 -17.14651394 32.28127384 C-17.16934316 29.00698443 -17.16240636 25.73277012 -17.15864563 22.4584198 C-17.16987961 21.23639359 -17.18111359 20.01436737 -17.19268799 18.75531006 C-17.10431634 7.97268871 -17.10431634 7.97268871 -12.66255188 3.36076355 C-8.53307396 0.25841542 -5.00710431 -0.06170002 0 0 Z " fill="#000000" transform="translate(107.66255187988281,58.63923645019531)"/>
</svg>
