<?xml version="1.0" encoding="UTF-8"?>
<svg version="1.1" xmlns="http://www.w3.org/2000/svg" width="512" height="512">
<path d="M0 0 C1.4916865 -0.00679667 1.4916865 -0.00679667 3.01350808 -0.01373065 C6.34354572 -0.02638404 9.67342 -0.02475364 13.003479 -0.02310181 C15.39205129 -0.02908649 17.78062165 -0.0358919 20.16918945 -0.04345703 C25.98305992 -0.05929534 31.79688089 -0.06556574 37.61077186 -0.06668179 C42.33880992 -0.06763326 47.06683463 -0.07174848 51.79486847 -0.07808304 C65.21112665 -0.09569106 78.62735288 -0.10492271 92.0436227 -0.10342209 C92.76642997 -0.10334218 93.48923724 -0.10326227 94.23394775 -0.10317993 C94.95764164 -0.10309817 95.68133554 -0.10301641 96.42695954 -0.10293217 C108.15015669 -0.10211962 119.87322525 -0.12125067 131.59638521 -0.14945666 C143.64482482 -0.1782156 155.69320178 -0.19199528 167.74167657 -0.19026911 C174.50146177 -0.1896062 181.26111219 -0.19505488 188.02086639 -0.21662521 C194.38043961 -0.23600629 200.73972851 -0.23613259 207.09931183 -0.22159195 C209.43010372 -0.21950257 211.76091339 -0.22421238 214.0916748 -0.23631287 C217.28052453 -0.25179258 220.46839725 -0.24243836 223.65722656 -0.22705078 C225.03148194 -0.24248147 225.03148194 -0.24248147 226.43350005 -0.25822389 C236.77639965 -0.14839442 245.79889742 3.92803544 253.08258057 11.26742554 C258.60926437 18.73495761 261.39250443 25.79609732 261.34264278 35.1249485 C261.34644846 35.90155156 261.35025413 36.67815461 261.35417512 37.47829109 C261.36449273 40.08414649 261.36058441 42.68978413 261.35673523 45.2956543 C261.36118755 47.18144105 261.36650157 49.06722592 261.37260395 50.95300806 C261.38679527 56.13821979 261.38844703 61.32337162 261.38800704 66.5086 C261.38965426 72.09979097 261.40271904 77.69095719 261.41419983 83.28213501 C261.43705674 95.50946786 261.44497124 107.73678337 261.45002627 119.96413469 C261.45328259 127.59902105 261.4598047 135.23390236 261.46702766 142.86878586 C261.48659476 164.00779646 261.50307953 185.14680224 261.5059042 206.28582191 C261.50599826 206.9618732 261.50609232 207.63792448 261.50618923 208.33446216 C261.50656771 211.074152 261.5069317 213.81384184 261.50729221 216.55353169 C261.50756393 218.61555229 261.50784061 220.6775729 261.50811768 222.73959351 C261.5082057 223.42096503 261.50829372 224.10233656 261.50838441 224.80435571 C261.51128903 246.20728812 261.5333778 267.61013016 261.56964111 289.01303101 C261.61038979 313.06379648 261.63404335 337.11448375 261.63436371 361.16529214 C261.63494838 373.89768476 261.6434464 386.62996107 261.67236137 399.36232376 C261.69687014 410.2043462 261.70416147 421.04620993 261.68911385 431.88825257 C261.68194291 437.41887478 261.68281074 442.94918356 261.70552444 448.47977066 C261.72613475 453.54680374 261.72349455 458.61328284 261.7026496 463.68031006 C261.69915867 465.5094076 261.70404783 467.33854529 261.71835404 469.16759022 C261.80913753 481.57811275 260.91016269 493.20012944 251.88336182 502.74008179 C243.41003893 509.92678298 235.07485266 512.57137663 224.16516113 512.53485107 C223.17070347 512.53938219 222.1762458 512.5439133 221.15165305 512.54858172 C217.82161542 512.56123512 214.49174114 512.55960472 211.16168213 512.55795288 C208.77310984 512.56393757 206.38453949 512.57074297 203.99597168 512.57830811 C198.18210121 512.59414641 192.36828024 512.60041681 186.55438927 512.60153286 C181.82635121 512.60248433 177.0983265 512.60659955 172.37029266 512.61293411 C158.95403448 512.63054213 145.53780825 512.63977379 132.12153843 512.63827316 C131.39873116 512.63819325 130.6759239 512.63811334 129.93121338 512.63803101 C129.20751949 512.63794924 128.4838256 512.63786748 127.73820159 512.63778324 C116.01500444 512.63697069 104.29193589 512.65610174 92.56877592 512.68430774 C80.52033631 512.71306667 68.47195935 512.72684635 56.42348456 512.72512019 C49.66369937 512.72445727 42.90404894 512.72990596 36.14429474 512.75147629 C29.78472152 512.77085737 23.42543262 512.77098367 17.0658493 512.75644302 C14.73505742 512.75435364 12.40424774 512.75906346 10.07348633 512.77116394 C6.8846366 512.78664365 3.69676388 512.77728944 0.50793457 512.76190186 C-0.86632081 512.77733254 -0.86632081 512.77733254 -2.26833892 512.79307497 C-12.61123851 512.68324549 -21.63373628 508.60681563 -28.91741943 501.26742554 C-34.44410324 493.79989346 -37.2273433 486.73875376 -37.17748165 477.40990257 C-37.18128732 476.63329952 -37.18509299 475.85669646 -37.18901399 475.05655998 C-37.1993316 472.45070458 -37.19542328 469.84506694 -37.1915741 467.23919678 C-37.19602641 465.35341003 -37.20134044 463.46762515 -37.20744282 461.58184302 C-37.22163414 456.39663128 -37.2232859 451.21147945 -37.22284591 446.02625108 C-37.22449313 440.43506011 -37.2375579 434.84389389 -37.2490387 429.25271606 C-37.27189561 417.02538321 -37.27981011 404.7980677 -37.28486514 392.57071638 C-37.28812146 384.93583003 -37.29464356 377.30094872 -37.30186653 369.66606522 C-37.32143363 348.52705461 -37.33791839 327.38804884 -37.34074306 306.24902916 C-37.34083713 305.57297788 -37.34093119 304.8969266 -37.3410281 304.20038891 C-37.34140657 301.46069907 -37.34177057 298.72100923 -37.34213108 295.98131939 C-37.3424028 293.91929878 -37.34267947 291.85727817 -37.34295654 289.79525757 C-37.34304457 289.11388604 -37.34313259 288.43251451 -37.34322328 287.73049537 C-37.34612789 266.32756296 -37.36821667 244.92472091 -37.40447998 223.52182007 C-37.44522866 199.47105459 -37.46888222 175.42036732 -37.46920258 151.36955893 C-37.46978724 138.63716632 -37.47828527 125.90489 -37.50720024 113.17252731 C-37.53170901 102.33050488 -37.53900034 91.48864115 -37.52395272 80.6465985 C-37.51678178 75.1159763 -37.51764961 69.58566752 -37.54036331 64.05508041 C-37.56097362 58.98804733 -37.55833342 53.92156824 -37.53748847 48.85454102 C-37.53399753 47.02544347 -37.5388867 45.19630579 -37.55319291 43.36726086 C-37.6439764 30.95673832 -36.74500156 19.33472164 -27.71820068 9.79476929 C-19.2448778 2.6080681 -10.90969153 -0.03652555 0 0 Z M72.08258057 27.26742554 C72.46162264 30.5581855 72.46162264 30.5581855 74.08258057 33.26742554 C76.44480274 33.3729917 78.7779344 33.41421052 81.14093018 33.41268921 C81.87913498 33.41604782 82.61733978 33.41940643 83.37791443 33.42286682 C85.83026794 33.43240435 88.28255339 33.43432133 90.73492432 33.43539429 C92.43264291 33.43860493 94.13036122 33.44196885 95.82807922 33.44548035 C99.3916793 33.45147864 102.95525509 33.45331953 106.51885986 33.45272827 C111.093511 33.45262661 115.66800706 33.46627974 120.24262142 33.48350048 C123.75039897 33.49459898 127.25813877 33.49664814 130.76593208 33.49611855 C132.45289202 33.49730188 134.13985283 33.50174332 135.82679558 33.50945091 C138.18292082 33.51920763 140.53870614 33.51639007 142.89483643 33.51034546 C143.94767822 33.51877472 143.94767822 33.51877472 145.02178955 33.52737427 C148.99649005 33.60521333 148.99649005 33.60521333 152.08258057 31.26742554 C151.9175041 28.69202341 151.9175041 28.69202341 151.08258057 26.26742554 C148.11100839 24.78163945 145.42577765 25.13187543 142.11016846 25.12216187 C141.39293106 25.11880325 140.67569366 25.11544464 139.9367218 25.11198425 C137.55954265 25.10246487 135.18243386 25.10053068 132.80523682 25.09945679 C131.15618358 25.09624498 129.50713063 25.09288097 127.858078 25.08937073 C124.39880716 25.08337705 120.93956131 25.08153108 117.48028564 25.0821228 C113.04364317 25.08222446 108.60716062 25.06856965 104.17055607 25.05135059 C100.76396445 25.04024234 97.35741164 25.03820323 93.95080376 25.03873253 C92.31490973 25.03755074 90.67901475 25.03311784 89.0431385 25.02540016 C86.7567735 25.0156235 84.4707576 25.01846892 82.18438721 25.02450562 C80.8824794 25.0230806 79.58057159 25.02165558 78.23921204 25.02018738 C74.92257678 25.02162391 74.92257678 25.02162391 72.08258057 27.26742554 Z M-11.91741943 55.26742554 C-11.91741943 184.95742554 -11.91741943 314.64742554 -11.91741943 448.26742554 C69.92258057 448.26742554 151.76258057 448.26742554 236.08258057 448.26742554 C236.08258057 318.57742554 236.08258057 188.88742554 236.08258057 55.26742554 C154.24258057 55.26742554 72.40258057 55.26742554 -11.91741943 55.26742554 Z M97.70758057 467.95492554 C94.9981339 473.47802836 94.46939689 478.00631075 96.08258057 483.95492554 C99.02326556 488.82543505 102.62850104 492.44939903 108.08258057 494.26742554 C114.51681144 494.68934232 118.67455754 494.21253209 123.75054932 489.82601929 C127.44994177 486.03875528 129.00693396 482.77595169 129.25054932 477.47055054 C128.86975028 472.47588414 126.86202263 469.16678177 123.64508057 465.45492554 C119.02633632 461.51209509 115.60262152 460.81389733 109.61773682 460.95492554 C104.35622334 461.60349422 101.22076466 463.97948037 97.70758057 467.95492554 Z " fill="#000000" transform="translate(143.91741943359375,-0.267425537109375)"/>
</svg>
