<?xml version="1.0" encoding="UTF-8"?>
<svg version="1.1" xmlns="http://www.w3.org/2000/svg" width="512" height="512">
<path d="M0 0 C6.2779529 4.91354447 12.10843219 10.25489687 17.875 15.75 C18.58269531 16.40484375 19.29039062 17.0596875 20.01953125 17.734375 C26.37475581 23.79190065 31.59742844 30.76271319 36.875 37.75 C37.29539551 38.29897949 37.71579102 38.84795898 38.14892578 39.41357422 C57.33784877 64.58998966 75.585757 97.78981964 73.72265625 130.41796875 C71.87561125 143.80385665 65.86762414 157.70952017 59.875 169.75 C64.52280866 172.15206255 69.12100693 174.28805553 74.01367188 176.13208008 C91.06757249 182.6377251 103.84993498 193.73250815 111.72119141 210.41430664 C116.45600339 221.41485046 118.83942387 233.45155641 121.66644287 245.06213379 C122.36018657 247.89187995 123.07232352 250.71684863 123.784935 253.54189205 C137.87845547 309.45322093 137.87845547 309.45322093 124.875 333.75 C117.17861678 346.36147308 108.27769564 356.04865218 94.875 362.75 C94.84994385 363.57201904 94.8248877 364.39403809 94.79907227 365.2409668 C94.68287345 368.97329374 94.56025495 372.70538317 94.4375 376.4375 C94.37852539 378.37786133 94.37852539 378.37786133 94.31835938 380.35742188 C94.27646484 381.60458984 94.23457031 382.85175781 94.19140625 384.13671875 C94.15474854 385.28358154 94.11809082 386.43044434 94.08032227 387.61206055 C93.89659702 390.41993278 93.5050618 393.01225814 92.875 395.75 C93.75542969 395.70359375 94.63585937 395.6571875 95.54296875 395.609375 C96.70441406 395.57328125 97.86585938 395.5371875 99.0625 395.5 C100.21105469 395.45359375 101.35960937 395.4071875 102.54296875 395.359375 C106.5297744 395.82676136 108.08313044 396.92240267 110.875 399.75 C112.18658768 403.52081459 112.06155908 405.23941725 110.6875 409 C108.76768378 411.91282462 108.02798936 412.53802479 104.875 413.75 C102.55011898 414.001849 102.55011898 414.001849 99.93020725 414.00447559 C98.92907542 414.01030779 97.92794358 414.01613998 96.89647442 414.02214891 C95.79872517 414.01836958 94.70097592 414.01459026 93.56996155 414.01069641 C92.4021757 414.01452196 91.23438986 414.01834751 90.03121656 414.02228898 C86.78901016 414.03083203 83.54694803 414.03038159 80.30473769 414.02610838 C76.80841664 414.02364516 73.31212243 414.03265028 69.81581116 414.04014587 C62.96594146 414.05290606 56.11611094 414.05468493 49.26623137 414.05234561 C43.69952636 414.0505638 38.13283326 414.05230914 32.56612968 414.05657005 C31.37847807 414.05746284 31.37847807 414.05746284 30.1668335 414.05837366 C28.55844629 414.05958539 26.95005908 414.06079952 25.34167188 414.06201603 C10.25260103 414.0728966 -4.83644748 414.0707266 -19.92551959 414.06463119 C-33.73441614 414.05946127 -47.54324215 414.07071851 -61.35212474 414.08972941 C-75.52602775 414.10909348 -89.69989736 414.11736634 -103.87381369 414.11360615 C-111.83342501 414.11169197 -119.79297628 414.11420279 -127.75257683 414.12832069 C-134.52845185 414.14021724 -141.30422988 414.14165884 -148.08010619 414.12953053 C-151.53794648 414.1236297 -154.9956092 414.12257538 -158.45343781 414.13453293 C-162.20011753 414.14492984 -165.94631594 414.13695606 -169.69297791 414.1242218 C-171.33625569 414.13528323 -171.33625569 414.13528323 -173.01273102 414.14656812 C-182.42555688 414.07898691 -182.42555688 414.07898691 -186.125 410.75 C-187.6652467 407.13376861 -188.37771313 404.86193778 -187.5 401 C-185.90783186 398.39463395 -184.76072084 397.29705353 -182.125 395.75 C-178.890625 395.45703125 -178.890625 395.45703125 -175.375 395.5625 C-174.20453125 395.58957031 -173.0340625 395.61664063 -171.828125 395.64453125 C-170.49007812 395.69673828 -170.49007812 395.69673828 -169.125 395.75 C-169.2907251 395.05704834 -169.4564502 394.36409668 -169.62719727 393.65014648 C-170.17304105 390.47011791 -170.16834552 387.57232137 -170.08984375 384.34765625 C-170.08662109 383.12755859 -170.08339844 381.90746094 -170.08007812 380.65039062 C-170.06837542 378.09529992 -170.02158137 375.54012538 -169.93945312 372.98632812 C-169.96455098 369.32783322 -170.09834142 366.2651064 -171.125 362.75 C-174.09460402 359.84915423 -177.35588393 358.39901123 -181.125 356.75 C-196.50411547 345.23148553 -206.00118426 328.65898666 -208.8125 309.75 C-208.93502302 308.41822803 -209.03840448 307.08458971 -209.125 305.75 C-209.18945312 305.01265625 -209.25390625 304.2753125 -209.3203125 303.515625 C-209.59605384 297.59637764 -208.73699204 292.00126064 -207.55859375 286.21875 C-207.29849518 284.93517609 -207.29849518 284.93517609 -207.03314209 283.62567139 C-204.61597184 271.98241861 -201.75498179 260.44312173 -198.85400391 248.91259766 C-198.19751251 246.2996133 -197.55253171 243.68419434 -196.91748047 241.06591797 C-191.10860016 217.14313315 -184.81581634 195.73718015 -162.98144531 181.92041016 C-154.87572623 177.15428256 -145.9270454 173.9765289 -137.125 170.75 C-137.125 166.7281809 -138.74630673 163.62820043 -140.3125 160 C-151.43777683 133.39558483 -151.62173264 112.40455867 -141.125 85.75 C-130.44735467 59.8335548 -114.15081744 37.17281803 -95.125 16.75 C-94.08085937 15.62464844 -94.08085937 15.62464844 -93.015625 14.4765625 C-66.51420504 -13.08878308 -32.95659262 -23.9762434 0 0 Z M-126.1875 124.75 C-129.04363097 127.97574792 -129.96912901 130.42080891 -130.125 134.75 C-129.35418706 138.12487041 -128.20128968 141.31950225 -127 144.5625 C-126.70351562 145.41392578 -126.40703125 146.26535156 -126.1015625 147.14257812 C-123.43107616 154.5712827 -120.33098298 161.63037735 -114.8125 167.375 C-112.44833886 170.00795465 -112.12919475 170.725251 -111.5 174.4375 C-112.25262167 178.42639483 -113.01695351 179.21188039 -116.125 181.75 C-118.70051759 183.08868527 -121.36875566 184.12996594 -124.07421875 185.17578125 C-125.66088283 185.81426543 -127.24746887 186.45294359 -128.83398438 187.09179688 C-131.31578769 188.07694204 -133.79934928 189.05733814 -136.28491211 190.03295898 C-149.66889166 195.23424508 -149.66889166 195.23424508 -161.125 203.75 C-162.06363892 204.64730835 -162.06363892 204.64730835 -163.02124023 205.56274414 C-171.47810332 214.40051691 -174.23766685 225.88600277 -177.04296875 237.47265625 C-177.38888852 238.86808929 -177.73569309 240.26330325 -178.08332825 241.65830994 C-178.98805838 245.30002452 -179.87966184 248.94483024 -180.76873779 252.59039307 C-181.49302335 255.5502162 -182.22696175 258.50760492 -182.96137524 261.46492863 C-183.84619964 265.02915148 -184.72632571 268.59452838 -185.60546875 272.16015625 C-185.76973043 272.82550951 -185.93399212 273.49086277 -186.10323143 274.17637825 C-190.88751196 293.60120844 -193.65886193 308.18274132 -184.125 326.75 C-180.72777124 331.89637401 -176.74468517 336.65827885 -172.125 340.75 C-171.465 340.75 -170.805 340.75 -170.125 340.75 C-170.12135437 339.52161911 -170.11770874 338.29323822 -170.11395264 337.02763367 C-170.07692231 325.4198648 -170.01906174 313.81235924 -169.94109726 302.20479107 C-169.90168173 296.23799773 -169.86946407 290.27135067 -169.85400391 284.30444336 C-169.8387985 278.54005171 -169.80428356 272.77606237 -169.75669098 267.01185036 C-169.74191728 264.81881022 -169.7339613 262.62571264 -169.73311615 260.43262291 C-169.71347291 235.00643433 -169.71347291 235.00643433 -163.22894287 227.57792664 C-157.33164379 221.7633839 -150.47487285 219.43190842 -142.32853901 219.34410769 C-141.07803912 219.35312276 -141.07803912 219.35312276 -139.80227661 219.36231995 C-138.44278406 219.35424164 -138.44278406 219.35424164 -137.05582702 219.34600013 C-134.0359383 219.33175703 -131.01649017 219.33881532 -127.99658203 219.34594727 C-125.82445932 219.34024178 -123.65233961 219.33327682 -121.48022461 219.32514954 C-115.59174163 219.30722223 -109.70340771 219.30838584 -103.81490564 219.31409192 C-98.89448599 219.31718458 -93.97409493 219.31109039 -89.05367935 219.30505317 C-77.44315131 219.29101075 -65.83269686 219.29256673 -54.22216797 219.30395508 C-42.25469587 219.31543434 -30.28748738 219.3013631 -18.32003891 219.2745586 C-8.03528935 219.25238769 2.24938993 219.24576743 12.53416169 219.25163502 C18.67240461 219.25500264 24.81050388 219.25260234 30.94872665 219.23538399 C36.72231586 219.21989506 42.49557357 219.22389236 48.26914978 219.24268913 C50.38385582 219.24636967 52.49858653 219.24328223 54.61326981 219.23280334 C76.79258271 219.1313189 76.79258271 219.1313189 85.27734375 225.57421875 C85.78394531 226.18910156 86.29054688 226.80398438 86.8125 227.4375 C87.59947266 228.34048828 87.59947266 228.34048828 88.40234375 229.26171875 C92.48073566 236.15279473 93.31989131 243.07703152 93.30737305 250.95141602 C93.3175647 251.92808731 93.32775635 252.90475861 93.33825684 253.911026 C93.36822179 257.10871236 93.37762756 260.30609834 93.38671875 263.50390625 C93.40357765 265.73307783 93.42172951 267.96223997 93.44111633 270.19139099 C93.4884907 276.03562471 93.51838136 281.87982014 93.54455566 287.72418213 C93.57442461 293.69705765 93.62093317 299.66980148 93.66601562 305.64257812 C93.75190583 317.34498302 93.8193146 329.04741511 93.875 340.75 C104.08127313 335.91070448 109.21560386 324.89478612 112.984375 314.76953125 C115.55729042 306.0464452 115.17134818 297.77119633 113.3125 289.0078125 C113.13661346 288.15654785 112.96072693 287.3052832 112.7795105 286.42822266 C110.43907922 275.35412483 107.7006295 264.37255067 104.92138672 253.40185547 C103.99515616 249.73080176 103.08932771 246.05506311 102.18359375 242.37890625 C101.5845775 240.00229023 100.98435939 237.62597675 100.3828125 235.25 C100.12009552 234.17161865 99.85737854 233.0932373 99.58670044 231.98217773 C97.101278 222.33868242 93.38625186 212.69794112 86.5 205.3125 C85.81164062 204.55066406 85.12328125 203.78882813 84.4140625 203.00390625 C75.79321184 195.35124343 64.8298575 191.9153208 54.26367188 187.75854492 C51.97953836 186.85675034 49.70062768 185.94263279 47.421875 185.02734375 C46.72390808 184.75744125 46.02594116 184.48753876 45.30682373 184.2094574 C41.38463699 182.62849596 38.51836894 181.09026457 35.875 177.75 C35.125 174.625 35.125 174.625 35.875 170.75 C37.69205442 168.24819354 39.69650343 165.95870891 41.7109375 163.61328125 C45.56627183 158.51227031 47.64873202 152.69984894 49.875 146.75 C50.30167969 145.64398438 50.72835937 144.53796875 51.16796875 143.3984375 C53.1215032 138.02455092 54.4014446 134.42837391 52.875 128.75 C45.29225558 116.13528146 28.88761227 110.9986463 15.37109375 107.5546875 C-23.5496124 98.26698145 -95.54022387 92.24905798 -126.1875 124.75 Z " fill="#000000" transform="translate(294.125,56.25)"/>
<path d="M0 0 C26.86913062 -0.75652174 55.71338104 0.91443451 80.88574219 11.06640625 C81.88574219 12.06640625 81.88574219 12.06640625 82.19824219 15.69140625 C81.85957935 35.17991329 70.4830695 53.85975967 57.63574219 67.75390625 C43.77139607 80.88010431 26.33006101 88.68789789 7.19824219 88.56640625 C5.6316687 88.55891357 5.6316687 88.55891357 4.03344727 88.55126953 C-15.62285777 88.11241139 -31.56953754 79.2930386 -45.52441406 65.72265625 C-57.80414323 52.74784807 -68.24444143 34.12899098 -68.30175781 15.81640625 C-68.23988281 14.57890625 -68.17800781 13.34140625 -68.11425781 12.06640625 C-48.58219935 0.67270548 -22.03357665 0.69204767 0 0 Z " fill="#000000" transform="translate(249.1142578125,173.93359375)"/>
</svg>
